Coordinates
version=1
nRows=22
nColumns=24
inDegrees=yes

Units are S.I. units (second, meters, Newtons, ...)
Angles are in degrees.

endheader
time	pelvis_tilt	pelvis_list	pelvis_rotation	pelvis_tx	pelvis_ty	pelvis_tz	hip_flexion_r	hip_adduction_r	hip_rotation_r	knee_angle_r	ankle_angle_r	subtalar_angle_r	mtp_angle_r	hip_flexion_l	hip_adduction_l	hip_rotation_l	knee_angle_l	ankle_angle_l	subtalar_angle_l	mtp_angle_l	lumbar_extension	lumbar_bending	lumbar_rotation
      6.38000000	      5.21128940	     -4.02527143	     -1.13466563	      1.64266447	      1.05111037	     -0.22272617	    -17.88803724	      6.88308716	     -6.36234803	    -14.54685464	      7.94281490	     -9.68548336	      0.00000000	     11.55356609	     -2.11265098	     -2.26938507	      2.14636585	      0.10826822	    -16.84560100	      0.00000000	    -21.19664991	      1.60016201	      0.79443040
      6.39000000	      5.37345511	     -3.71052148	     -1.04142133	      1.65642563	      1.04988380	     -0.22472806	    -18.10048336	      6.24114795	     -7.52910876	    -15.85044921	      7.81523598	     -8.68905518	      0.00000000	     11.49297544	     -1.61711109	     -1.76710020	      1.19005443	     -0.73851130	    -18.04500112	      0.00000000	    -21.07862986	      1.32979306	      0.70070604
      6.40000000	      5.53222523	     -3.28218118	     -0.92905862	      1.67042765	      1.04876398	     -0.22681755	    -18.27548914	      5.45197559	     -8.78183918	    -17.22970411	      7.51349501	     -7.72096261	      0.00000000	     11.45998638	     -0.99625802	     -1.21545818	     -0.03189508	     -1.90120897	    -19.38234153	      0.00000000	    -20.92576535	      0.94381548	      0.58491151
      6.41000000	      5.65262549	     -2.72423835	     -0.78569209	      1.68461612	      1.04777133	     -0.22898161	    -18.37125442	      4.51065322	    -10.08378600	    -18.68434312	      6.96457881	     -6.87507390	      0.00000000	     11.49844925	     -0.23466926	     -0.67774912	     -1.47453420	     -3.20308161	    -20.71957424	      0.00000000	    -20.70048535	      0.42386086	      0.40245443
      6.42000000	      5.74761588	     -2.04193554	     -0.60854976	      1.69890489	      1.04697964	     -0.23119954	    -18.38707023	      3.43175588	    -11.36888415	    -20.22841596	      6.04926164	     -6.28858415	      0.00000000	     11.59718244	      0.65877758	     -0.23079234	     -3.09148505	     -4.41678505	    -21.89687634	      0.00000000	    -20.44025675	     -0.22803014	      0.13848524
      6.43000000	      5.81761422	     -1.25142836	     -0.37926610	      1.71325449	      1.04642011	     -0.23346497	    -18.32387034	      2.24611972	    -12.61380786	    -21.84927376	      4.69833176	     -6.00988636	      0.00000000	     11.75723829	      1.66662128	      0.08376719	     -4.84984829	     -5.29094090	    -22.81510539	      0.00000000	    -20.14524243	     -0.98929795	     -0.20056428
      6.44000000	      5.88459945	     -0.37687939	     -0.14117145	      1.72757899	      1.04614561	     -0.23568230	    -18.17022921	      0.97024380	    -13.73501563	    -23.58981995	      2.82028132	     -6.14806445	      0.00000000	     11.93756221	      2.74233539	      0.06589975	     -6.68817679	     -5.55898218	    -23.14601688	      0.00000000	    -19.86004351	     -1.85871750	     -0.58088817
      6.45000000	      5.88785346	      0.50821876	      0.17540754	      1.74189418	      1.04602611	     -0.23798024	    -17.86898385	     -0.30537388	    -14.78638443	    -25.43044938	      0.40702933	     -6.57228706	      0.00000000	     12.13690829	      3.84139469	      0.16509937	     -8.49126838	     -5.36858190	    -23.43892729	      0.00000000	    -19.50049717	     -2.71678042	     -1.07690879
      6.46000000	      5.85876022	      1.38122081	      0.43933462	      1.75611826	      1.04612440	     -0.24012520	    -17.41356444	     -1.57293670	    -15.53376214	    -27.39078521	     -2.64241951	     -7.51776766	      0.00000000	     12.28929356	      4.89430266	     -0.00335766	    -10.17897711	     -4.61468765	    -23.26073348	      0.00000000	    -19.11502173	     -3.59022778	     -1.52763251
      6.47000000	      5.78790072	      2.17179258	      0.72086524	      1.77022340	      1.04638591	     -0.24225764	    -16.79081100	     -2.75216019	    -16.07308808	    -29.45743168	     -6.21124219	     -8.75057687	      0.00000000	     12.33432097	      5.86735538	     -0.05459983	    -11.62454836	     -3.56409399	    -23.01709284	      0.00000000	    -18.69673418	     -4.36130726	     -2.02672646
      6.48000000	      5.66535988	      2.89964265	      0.88666792	      1.78416710	      1.04680519	     -0.24418090	    -15.94782467	     -3.88256431	    -16.22095020	    -31.65418970	    -10.11828921	    -10.22712092	      0.00000000	     12.26481243	      6.74290530	     -0.24293112	    -12.76935182	     -2.31199618	    -22.61506077	      0.00000000	    -18.23012460	     -5.09634328	     -2.44978990
      6.49000000	      5.48615723	      3.54564527	      0.91324199	      1.79789905	      1.04737459	     -0.24583841	    -14.85747580	     -4.93063983	    -15.93625822	    -33.98100092	    -14.08724210	    -11.75687344	      0.00000000	     12.09667990	      7.48721836	     -0.64350479	    -13.61445225	     -0.74512668	    -21.76516038	      0.00000000	    -17.71226962	     -5.77872432	     -2.79156320
      6.50000000	      5.27356468	      4.06524064	      0.84723744	      1.81135548	      1.04808294	     -0.24735957	    -13.55341476	     -5.82364604	    -15.30354000	    -36.39554637	    -18.03653995	    -13.44671456	      0.00000000	     11.75848631	      8.11598681	     -0.75970603	    -14.05670640	      0.27124745	    -21.63657693	      0.00000000	    -17.18584200	     -6.31996457	     -3.09073983
      6.51000000	      5.03607955	      4.49582702	      0.62859148	      1.82450781	      1.04893424	     -0.24856501	    -12.03014300	     -6.58044905	    -14.28922023	    -38.90403494	    -21.64031613	    -15.19903506	      0.00000000	     11.33927155	      8.60260846	     -1.11840658	    -14.25714287	      1.53606086	    -21.02296690	      0.00000000	    -16.65522742	     -6.79471183	     -3.29949073
      6.52000000	      4.78847050	      4.83083611	      0.30224533	      1.83732180	      1.04988691	     -0.24958808	    -10.32921626	     -7.18052947	    -13.03694182	    -41.46942196	    -24.87801347	    -17.13034358	      0.00000000	     10.81210655	      8.99193761	     -1.36325215	    -14.18148210	      2.37108584	    -20.89909606	      0.00000000	    -16.14956521	     -7.16461733	     -3.47668236
      6.53000000	      4.54766181	      5.08922762	     -0.10285404	      1.84982301	      1.05094807	     -0.25043931	     -8.51170252	     -7.61966466	    -11.63702747	    -44.03201942	    -27.74346276	    -19.31714934	      0.00000000	     10.20555670	      9.29276329	     -1.61616001	    -13.91933186	      3.01120167	    -20.80083006	      0.00000000	    -15.68278410	     -7.44856006	     -3.62394026
      6.54000000	      4.34390493	      5.29068048	     -0.53708258	      1.86200696	      1.05210145	     -0.25119694	     -6.65592936	     -7.91577349	    -10.21981355	    -46.53751740	    -30.27540200	    -21.85800476	      0.00000000	      9.53460926	      9.53036428	     -1.92179793	    -13.55866176	      3.54537863	    -20.73180583	      0.00000000	    -15.30357154	     -7.65538645	     -3.84099255
      6.55000000	      4.18258501	      5.40811193	     -0.95097424	      1.87392203	      1.05334207	     -0.25194239	     -4.82898913	     -8.03215300	     -8.85897863	    -48.90417714	    -32.44167179	    -24.87857363	      0.00000000	      8.79106383	      9.69796462	     -2.11601060	    -13.12117142	      4.04881741	    -20.65236687	      0.00000000	    -15.00848819	     -7.74110758	     -4.10126759
      6.56000000	      4.05120546	      5.47295255	     -1.31304111	      1.88561017	      1.05464636	     -0.25273121	     -3.05413279	     -8.02952856	     -7.63778598	    -51.08840045	    -34.24662689	    -28.22305087	      0.00000000	      8.00474707	      9.82651654	     -2.25238823	    -12.63900796	      4.39533508	    -20.62521401	      0.00000000	    -14.78677663	     -7.74507880	     -4.45085863
      6.57000000	      3.95873095	      5.44903578	     -1.59432480	      1.89712145	      1.05602438	     -0.25363495	     -1.37854540	     -7.88814132	     -6.59115712	    -53.03472284	    -35.64815819	    -31.76927213	      0.00000000	      7.15758628	      9.89336525	     -2.19964175	    -12.12121626	      4.75023160	    -20.68059145	      0.00000000	    -14.63944069	     -7.61238955	     -4.87638109
      6.58000000	      3.88222290	      5.35663055	     -1.77904632	      1.90848577	      1.05744098	     -0.25464821	      0.20596268	     -7.65589579	     -5.75197610	    -54.72319224	    -36.40628351	    -35.31498175	      0.00000000	      6.27997077	      9.90956922	     -2.00511897	    -11.58013244	      4.96633104	    -20.82252627	      0.00000000	    -14.54060463	     -7.37797198	     -5.36855403
      6.59000000	      3.74633789	      5.19869820	     -1.86092322	      1.91970737	      1.05879377	     -0.25577087	      1.78837756	     -7.35542962	     -5.11704870	    -56.16151730	    -36.36954347	    -38.54003428	      0.00000000	      5.46281104	      9.86916635	     -1.69105616	    -11.03682920	      5.06322422	    -21.05559949	      0.00000000	    -14.40000836	     -7.04808745	     -5.92072245
